<?xml version="1.0" encoding="utf-8" standalone="no"?>
<!DOCTYPE svg PUBLIC "-//W3C//DTD SVG 1.1//EN"
  "http://www.w3.org/Graphics/SVG/1.1/DTD/svg11.dtd">
<svg xmlns:xlink="http://www.w3.org/1999/xlink" width="1008pt" height="504pt" viewBox="0 0 1008 504" xmlns="http://www.w3.org/2000/svg" version="1.1">
 <metadata>
  <rdf:RDF xmlns:dc="http://purl.org/dc/elements/1.1/" xmlns:cc="http://creativecommons.org/ns#" xmlns:rdf="http://www.w3.org/1999/02/22-rdf-syntax-ns#">
   <cc:Work>
    <dc:type rdf:resource="http://purl.org/dc/dcmitype/StillImage"/>
    <dc:date>2025-04-10T23:55:05.821047</dc:date>
    <dc:format>image/svg+xml</dc:format>
    <dc:creator>
     <cc:Agent>
      <dc:title>Matplotlib v3.8.4, https://matplotlib.org/</dc:title>
     </cc:Agent>
    </dc:creator>
   </cc:Work>
  </rdf:RDF>
 </metadata>
 <defs>
  <style type="text/css">*{stroke-linejoin: round; stroke-linecap: butt}</style>
 </defs>
 <g id="figure_1">
  <g id="patch_1">
   <path d="M 0 504 
L 1008 504 
L 1008 0 
L 0 0 
z
" style="fill: #ffffff"/>
  </g>
  <g id="axes_1">
   <g id="patch_2">
    <path d="M 126 448.56 
L 907.2 448.56 
L 907.2 60.48 
L 126 60.48 
z
" style="fill: #ffffff"/>
   </g>
   <g id="PolyCollection_1">
    <defs>
     <path id="madea294d1d" d="M 161.509091 -215.728255 
L 161.509091 -207.751463 
L 192.386561 -172.865178 
L 223.264032 -138.810226 
L 254.141502 -113.799668 
L 285.018972 -101.679827 
L 315.896443 -102.101492 
L 346.773913 -127.878463 
L 377.651383 -171.095427 
L 408.528854 -212.394371 
L 439.406324 -249.678844 
L 470.283794 -279.206502 
L 501.161265 -304.906011 
L 532.038735 -325.508399 
L 562.916206 -338.934425 
L 593.793676 -343.189732 
L 624.671146 -344.988763 
L 655.548617 -343.156198 
L 686.426087 -341.421372 
L 717.303557 -333.682792 
L 748.181028 -366.420302 
L 779.058498 -352.437936 
L 809.935968 -333.578247 
L 840.813439 -311.383911 
L 871.690909 -290.036442 
L 871.690909 -300.449268 
L 871.690909 -300.449268 
L 840.813439 -321.610545 
L 809.935968 -344.709712 
L 779.058498 -362.983523 
L 748.181028 -376.586627 
L 717.303557 -350.726507 
L 686.426087 -357.594234 
L 655.548617 -358.588886 
L 624.671146 -360.478816 
L 593.793676 -357.290183 
L 562.916206 -353.114253 
L 532.038735 -338.23295 
L 501.161265 -316.287892 
L 470.283794 -289.704296 
L 439.406324 -259.221522 
L 408.528854 -220.287164 
L 377.651383 -178.207487 
L 346.773913 -134.17327 
L 315.896443 -108.314621 
L 285.018972 -108.200515 
L 254.141502 -121.207809 
L 223.264032 -147.237106 
L 192.386561 -181.424163 
L 161.509091 -215.728255 
z
" style="stroke: #0000ff; stroke-opacity: 0.2"/>
    </defs>
    <g clip-path="url(#p6e35765037)">
     <use xlink:href="#madea294d1d" x="0" y="504" style="fill: #0000ff; fill-opacity: 0.2; stroke: #0000ff; stroke-opacity: 0.2"/>
    </g>
   </g>
   <g id="PolyCollection_2">
    <defs>
     <path id="mf872796148" d="M 161.509091 -203.305484 
L 161.509091 -196.05249 
L 192.386561 -171.492354 
L 223.264032 -147.050306 
L 254.141502 -122.19189 
L 285.018972 -100.727647 
L 315.896443 -100.506098 
L 346.773913 -119.952193 
L 377.651383 -162.574676 
L 408.528854 -219.93116 
L 439.406324 -261.970379 
L 470.283794 -287.45509 
L 501.161265 -307.935373 
L 532.038735 -322.468283 
L 562.916206 -335.183245 
L 593.793676 -337.281891 
L 624.671146 -342.719685 
L 655.548617 -343.21979 
L 686.426087 -346.799902 
L 717.303557 -344.956744 
L 748.181028 -361.797805 
L 779.058498 -352.342271 
L 809.935968 -336.378604 
L 840.813439 -313.997029 
L 871.690909 -290.695194 
L 871.690909 -299.463064 
L 871.690909 -299.463064 
L 840.813439 -323.956835 
L 809.935968 -347.511873 
L 779.058498 -364.449608 
L 748.181028 -373.886831 
L 717.303557 -360.820187 
L 686.426087 -362.39813 
L 655.548617 -358.843392 
L 624.671146 -358.378615 
L 593.793676 -352.233843 
L 562.916206 -349.682681 
L 532.038735 -336.149585 
L 501.161265 -319.874622 
L 470.283794 -298.133357 
L 439.406324 -272.201782 
L 408.528854 -227.37088 
L 377.651383 -169.068702 
L 346.773913 -126.488462 
L 315.896443 -106.971335 
L 285.018972 -107.772562 
L 254.141502 -129.336417 
L 223.264032 -154.433442 
L 192.386561 -178.80493 
L 161.509091 -203.305484 
z
" style="stroke: #008000; stroke-opacity: 0.2"/>
    </defs>
    <g clip-path="url(#p6e35765037)">
     <use xlink:href="#mf872796148" x="0" y="504" style="fill: #008000; fill-opacity: 0.2; stroke: #008000; stroke-opacity: 0.2"/>
    </g>
   </g>
   <g id="PolyCollection_3">
    <defs>
     <path id="ma060d87caa" d="M 161.509091 -190.566001 
L 161.509091 -183.022146 
L 192.386561 -161.616265 
L 223.264032 -140.484233 
L 254.141502 -119.790108 
L 285.018972 -100.802475 
L 315.896443 -96.694335 
L 346.773913 -111.897702 
L 377.651383 -155.073104 
L 408.528854 -210.510927 
L 439.406324 -260.549919 
L 470.283794 -290.295965 
L 501.161265 -308.801744 
L 532.038735 -320.075696 
L 562.916206 -329.13842 
L 593.793676 -330.530444 
L 624.671146 -334.707993 
L 655.548617 -336.214633 
L 686.426087 -339.480224 
L 717.303557 -338.668107 
L 748.181028 -343.168757 
L 779.058498 -335.860625 
L 809.935968 -324.843665 
L 840.813439 -310.997215 
L 871.690909 -297.908868 
L 871.690909 -308.357779 
L 871.690909 -308.357779 
L 840.813439 -321.067139 
L 809.935968 -336.163808 
L 779.058498 -346.771238 
L 748.181028 -354.689838 
L 717.303557 -353.963979 
L 686.426087 -353.868755 
L 655.548617 -349.881405 
L 624.671146 -348.32785 
L 593.793676 -343.899613 
L 562.916206 -343.268875 
L 532.038735 -333.492257 
L 501.161265 -321.042854 
L 470.283794 -301.291472 
L 439.406324 -269.468636 
L 408.528854 -217.452638 
L 377.651383 -161.928425 
L 346.773913 -118.754564 
L 315.896443 -102.512869 
L 285.018972 -107.372498 
L 254.141502 -126.45069 
L 223.264032 -147.569762 
L 192.386561 -169.091238 
L 161.509091 -190.566001 
z
" style="stroke: #ffa500; stroke-opacity: 0.2"/>
    </defs>
    <g clip-path="url(#p6e35765037)">
     <use xlink:href="#ma060d87caa" x="0" y="504" style="fill: #ffa500; fill-opacity: 0.2; stroke: #ffa500; stroke-opacity: 0.2"/>
    </g>
   </g>
   <g id="PolyCollection_4">
    <defs>
     <path id="md20a9b4d56" d="M 161.509091 -132.148825 
L 161.509091 -123.995505 
L 192.386561 -128.576233 
L 223.264032 -135.64823 
L 254.141502 -137.735286 
L 285.018972 -144.139788 
L 315.896443 -150.328428 
L 346.773913 -149.502865 
L 377.651383 -180.988653 
L 408.528854 -208.181611 
L 439.406324 -235.609728 
L 470.283794 -255.134427 
L 501.161265 -274.780159 
L 532.038735 -287.672447 
L 562.916206 -302.736439 
L 593.793676 -311.990901 
L 624.671146 -324.53854 
L 655.548617 -333.890921 
L 686.426087 -343.923886 
L 717.303557 -349.403828 
L 748.181028 -296.847548 
L 779.058498 -305.815361 
L 809.935968 -313.561233 
L 840.813439 -315.929305 
L 871.690909 -325.190669 
L 871.690909 -335.465999 
L 871.690909 -335.465999 
L 840.813439 -327.282648 
L 809.935968 -325.302461 
L 779.058498 -316.878922 
L 748.181028 -308.284892 
L 717.303557 -361.495036 
L 686.426087 -354.895789 
L 655.548617 -345.359845 
L 624.671146 -336.452529 
L 593.793676 -323.795103 
L 562.916206 -313.853106 
L 532.038735 -299.232681 
L 501.161265 -285.615302 
L 470.283794 -265.926937 
L 439.406324 -245.80813 
L 408.528854 -217.726152 
L 377.651383 -190.552931 
L 346.773913 -159.741578 
L 315.896443 -159.038612 
L 285.018972 -152.871945 
L 254.141502 -146.498202 
L 223.264032 -143.26021 
L 192.386561 -137.197871 
L 161.509091 -132.148825 
z
" style="stroke: #800080; stroke-opacity: 0.2"/>
    </defs>
    <g clip-path="url(#p6e35765037)">
     <use xlink:href="#md20a9b4d56" x="0" y="504" style="fill: #800080; fill-opacity: 0.2; stroke: #800080; stroke-opacity: 0.2"/>
    </g>
   </g>
   <g id="PolyCollection_5">
    <defs>
     <path id="mffa51ea2aa" d="M 161.509091 -204.913971 
L 161.509091 -195.989326 
L 192.386561 -169.640644 
L 223.264032 -137.143913 
L 254.141502 -111.348996 
L 285.018972 -103.960237 
L 315.896443 -101.779565 
L 346.773913 -115.813533 
L 377.651383 -160.636063 
L 408.528854 -212.494473 
L 439.406324 -259.756643 
L 470.283794 -286.508134 
L 501.161265 -310.556661 
L 532.038735 -326.889023 
L 562.916206 -332.962607 
L 593.793676 -333.735152 
L 624.671146 -336.146654 
L 655.548617 -336.26878 
L 686.426087 -339.214343 
L 717.303557 -338.239738 
L 748.181028 -360.833475 
L 779.058498 -351.294586 
L 809.935968 -331.409248 
L 840.813439 -313.769326 
L 871.690909 -297.859069 
L 871.690909 -307.973561 
L 871.690909 -307.973561 
L 840.813439 -324.959425 
L 809.935968 -343.904015 
L 779.058498 -363.975361 
L 748.181028 -374.728132 
L 717.303557 -355.062474 
L 686.426087 -355.762011 
L 655.548617 -352.960749 
L 624.671146 -352.164473 
L 593.793676 -348.868421 
L 562.916206 -348.737058 
L 532.038735 -340.020018 
L 501.161265 -321.640941 
L 470.283794 -296.085506 
L 439.406324 -267.767961 
L 408.528854 -220.236509 
L 377.651383 -169.180997 
L 346.773913 -123.103312 
L 315.896443 -107.107541 
L 285.018972 -110.820295 
L 254.141502 -120.016643 
L 223.264032 -144.759094 
L 192.386561 -177.658583 
L 161.509091 -204.913971 
z
" style="stroke: #ff0000; stroke-opacity: 0.2"/>
    </defs>
    <g clip-path="url(#p6e35765037)">
     <use xlink:href="#mffa51ea2aa" x="0" y="504" style="fill: #ff0000; fill-opacity: 0.2; stroke: #ff0000; stroke-opacity: 0.2"/>
    </g>
   </g>
   <g id="PolyCollection_6">
    <defs>
     <path id="md6f88cf146" d="M 161.509091 -267.012505 
L 161.509091 -206.781945 
L 192.386561 -160.934293 
L 223.264032 -128.828979 
L 254.141502 -104.675261 
L 285.018972 -84.147162 
L 315.896443 -77.132933 
L 346.773913 -73.08 
L 377.651383 -82.96211 
L 408.528854 -114.830413 
L 439.406324 -163.001996 
L 470.283794 -208.801872 
L 501.161265 -248.175508 
L 532.038735 -272.058052 
L 562.916206 -283.929929 
L 593.793676 -288.86231 
L 624.671146 -288.830282 
L 655.548617 -287.068717 
L 686.426087 -293.250207 
L 717.303557 -302.976178 
L 748.181028 -292.353411 
L 779.058498 -272.389013 
L 809.935968 -261.189733 
L 840.813439 -255.21109 
L 871.690909 -230.389045 
L 871.690909 -311.687916 
L 871.690909 -311.687916 
L 840.813439 -357.477917 
L 809.935968 -362.986809 
L 779.058498 -371.719899 
L 748.181028 -394.161163 
L 717.303557 -412.652252 
L 686.426087 -417.680718 
L 655.548617 -420.371107 
L 624.671146 -425.88 
L 593.793676 -418.6736 
L 562.916206 -406.823075 
L 532.038735 -392.196751 
L 501.161265 -361.492148 
L 470.283794 -325.043777 
L 439.406324 -285.542028 
L 408.528854 -235.97267 
L 377.651383 -174.809016 
L 346.773913 -132.008336 
L 315.896443 -118.652474 
L 285.018972 -122.207632 
L 254.141502 -146.149963 
L 223.264032 -171.627523 
L 192.386561 -211.214682 
L 161.509091 -267.012505 
z
" style="stroke: #1f77b4; stroke-opacity: 0.2"/>
    </defs>
    <g clip-path="url(#p6e35765037)">
     <use xlink:href="#md6f88cf146" x="0" y="504" style="fill: #1f77b4; fill-opacity: 0.2; stroke: #1f77b4; stroke-opacity: 0.2"/>
    </g>
   </g>
   <g id="matplotlib.axis_1">
    <g id="xtick_1">
     <g id="line2d_1">
      <path d="M 161.509091 448.56 
L 161.509091 60.48 
" clip-path="url(#p6e35765037)" style="fill: none; stroke: #b0b0b0; stroke-width: 0.8; stroke-linecap: square"/>
     </g>
     <g id="line2d_2">
      <defs>
       <path id="mf807bd1ce1" d="M 0 0 
L 0 3.5 
" style="stroke: #000000; stroke-width: 0.8"/>
      </defs>
      <g>
       <use xlink:href="#mf807bd1ce1" x="161.509091" y="448.56" style="stroke: #000000; stroke-width: 0.8"/>
      </g>
     </g>
     <g id="text_1">
      <!-- 0 -->
      <g transform="translate(158.327841 463.158437) scale(0.1 -0.1)">
       <defs>
        <path id="DejaVuSans-30" d="M 2034 4250 
Q 1547 4250 1301 3770 
Q 1056 3291 1056 2328 
Q 1056 1369 1301 889 
Q 1547 409 2034 409 
Q 2525 409 2770 889 
Q 3016 1369 3016 2328 
Q 3016 3291 2770 3770 
Q 2525 4250 2034 4250 
z
M 2034 4750 
Q 2819 4750 3233 4129 
Q 3647 3509 3647 2328 
Q 3647 1150 3233 529 
Q 2819 -91 2034 -91 
Q 1250 -91 836 529 
Q 422 1150 422 2328 
Q 422 3509 836 4129 
Q 1250 4750 2034 4750 
z
" transform="scale(0.015625)"/>
       </defs>
       <use xlink:href="#DejaVuSans-30"/>
      </g>
     </g>
    </g>
    <g id="xtick_2">
     <g id="line2d_3">
      <path d="M 315.896443 448.56 
L 315.896443 60.48 
" clip-path="url(#p6e35765037)" style="fill: none; stroke: #b0b0b0; stroke-width: 0.8; stroke-linecap: square"/>
     </g>
     <g id="line2d_4">
      <g>
       <use xlink:href="#mf807bd1ce1" x="315.896443" y="448.56" style="stroke: #000000; stroke-width: 0.8"/>
      </g>
     </g>
     <g id="text_2">
      <!-- 5 -->
      <g transform="translate(312.715193 463.158437) scale(0.1 -0.1)">
       <defs>
        <path id="DejaVuSans-35" d="M 691 4666 
L 3169 4666 
L 3169 4134 
L 1269 4134 
L 1269 2991 
Q 1406 3038 1543 3061 
Q 1681 3084 1819 3084 
Q 2600 3084 3056 2656 
Q 3513 2228 3513 1497 
Q 3513 744 3044 326 
Q 2575 -91 1722 -91 
Q 1428 -91 1123 -41 
Q 819 9 494 109 
L 494 744 
Q 775 591 1075 516 
Q 1375 441 1709 441 
Q 2250 441 2565 725 
Q 2881 1009 2881 1497 
Q 2881 1984 2565 2268 
Q 2250 2553 1709 2553 
Q 1456 2553 1204 2497 
Q 953 2441 691 2322 
L 691 4666 
z
" transform="scale(0.015625)"/>
       </defs>
       <use xlink:href="#DejaVuSans-35"/>
      </g>
     </g>
    </g>
    <g id="xtick_3">
     <g id="line2d_5">
      <path d="M 470.283794 448.56 
L 470.283794 60.48 
" clip-path="url(#p6e35765037)" style="fill: none; stroke: #b0b0b0; stroke-width: 0.8; stroke-linecap: square"/>
     </g>
     <g id="line2d_6">
      <g>
       <use xlink:href="#mf807bd1ce1" x="470.283794" y="448.56" style="stroke: #000000; stroke-width: 0.8"/>
      </g>
     </g>
     <g id="text_3">
      <!-- 10 -->
      <g transform="translate(463.921294 463.158437) scale(0.1 -0.1)">
       <defs>
        <path id="DejaVuSans-31" d="M 794 531 
L 1825 531 
L 1825 4091 
L 703 3866 
L 703 4441 
L 1819 4666 
L 2450 4666 
L 2450 531 
L 3481 531 
L 3481 0 
L 794 0 
L 794 531 
z
" transform="scale(0.015625)"/>
       </defs>
       <use xlink:href="#DejaVuSans-31"/>
       <use xlink:href="#DejaVuSans-30" x="63.623047"/>
      </g>
     </g>
    </g>
    <g id="xtick_4">
     <g id="line2d_7">
      <path d="M 624.671146 448.56 
L 624.671146 60.48 
" clip-path="url(#p6e35765037)" style="fill: none; stroke: #b0b0b0; stroke-width: 0.8; stroke-linecap: square"/>
     </g>
     <g id="line2d_8">
      <g>
       <use xlink:href="#mf807bd1ce1" x="624.671146" y="448.56" style="stroke: #000000; stroke-width: 0.8"/>
      </g>
     </g>
     <g id="text_4">
      <!-- 15 -->
      <g transform="translate(618.308646 463.158437) scale(0.1 -0.1)">
       <use xlink:href="#DejaVuSans-31"/>
       <use xlink:href="#DejaVuSans-35" x="63.623047"/>
      </g>
     </g>
    </g>
    <g id="xtick_5">
     <g id="line2d_9">
      <path d="M 779.058498 448.56 
L 779.058498 60.48 
" clip-path="url(#p6e35765037)" style="fill: none; stroke: #b0b0b0; stroke-width: 0.8; stroke-linecap: square"/>
     </g>
     <g id="line2d_10">
      <g>
       <use xlink:href="#mf807bd1ce1" x="779.058498" y="448.56" style="stroke: #000000; stroke-width: 0.8"/>
      </g>
     </g>
     <g id="text_5">
      <!-- 20 -->
      <g transform="translate(772.695998 463.158437) scale(0.1 -0.1)">
       <defs>
        <path id="DejaVuSans-32" d="M 1228 531 
L 3431 531 
L 3431 0 
L 469 0 
L 469 531 
Q 828 903 1448 1529 
Q 2069 2156 2228 2338 
Q 2531 2678 2651 2914 
Q 2772 3150 2772 3378 
Q 2772 3750 2511 3984 
Q 2250 4219 1831 4219 
Q 1534 4219 1204 4116 
Q 875 4013 500 3803 
L 500 4441 
Q 881 4594 1212 4672 
Q 1544 4750 1819 4750 
Q 2544 4750 2975 4387 
Q 3406 4025 3406 3419 
Q 3406 3131 3298 2873 
Q 3191 2616 2906 2266 
Q 2828 2175 2409 1742 
Q 1991 1309 1228 531 
z
" transform="scale(0.015625)"/>
       </defs>
       <use xlink:href="#DejaVuSans-32"/>
       <use xlink:href="#DejaVuSans-30" x="63.623047"/>
      </g>
     </g>
    </g>
    <g id="text_6">
     <!-- Hour of the Day -->
     <g transform="translate(476.890625 476.836563) scale(0.1 -0.1)">
      <defs>
       <path id="DejaVuSans-48" d="M 628 4666 
L 1259 4666 
L 1259 2753 
L 3553 2753 
L 3553 4666 
L 4184 4666 
L 4184 0 
L 3553 0 
L 3553 2222 
L 1259 2222 
L 1259 0 
L 628 0 
L 628 4666 
z
" transform="scale(0.015625)"/>
       <path id="DejaVuSans-6f" d="M 1959 3097 
Q 1497 3097 1228 2736 
Q 959 2375 959 1747 
Q 959 1119 1226 758 
Q 1494 397 1959 397 
Q 2419 397 2687 759 
Q 2956 1122 2956 1747 
Q 2956 2369 2687 2733 
Q 2419 3097 1959 3097 
z
M 1959 3584 
Q 2709 3584 3137 3096 
Q 3566 2609 3566 1747 
Q 3566 888 3137 398 
Q 2709 -91 1959 -91 
Q 1206 -91 779 398 
Q 353 888 353 1747 
Q 353 2609 779 3096 
Q 1206 3584 1959 3584 
z
" transform="scale(0.015625)"/>
       <path id="DejaVuSans-75" d="M 544 1381 
L 544 3500 
L 1119 3500 
L 1119 1403 
Q 1119 906 1312 657 
Q 1506 409 1894 409 
Q 2359 409 2629 706 
Q 2900 1003 2900 1516 
L 2900 3500 
L 3475 3500 
L 3475 0 
L 2900 0 
L 2900 538 
Q 2691 219 2414 64 
Q 2138 -91 1772 -91 
Q 1169 -91 856 284 
Q 544 659 544 1381 
z
M 1991 3584 
L 1991 3584 
z
" transform="scale(0.015625)"/>
       <path id="DejaVuSans-72" d="M 2631 2963 
Q 2534 3019 2420 3045 
Q 2306 3072 2169 3072 
Q 1681 3072 1420 2755 
Q 1159 2438 1159 1844 
L 1159 0 
L 581 0 
L 581 3500 
L 1159 3500 
L 1159 2956 
Q 1341 3275 1631 3429 
Q 1922 3584 2338 3584 
Q 2397 3584 2469 3576 
Q 2541 3569 2628 3553 
L 2631 2963 
z
" transform="scale(0.015625)"/>
       <path id="DejaVuSans-20" transform="scale(0.015625)"/>
       <path id="DejaVuSans-66" d="M 2375 4863 
L 2375 4384 
L 1825 4384 
Q 1516 4384 1395 4259 
Q 1275 4134 1275 3809 
L 1275 3500 
L 2222 3500 
L 2222 3053 
L 1275 3053 
L 1275 0 
L 697 0 
L 697 3053 
L 147 3053 
L 147 3500 
L 697 3500 
L 697 3744 
Q 697 4328 969 4595 
Q 1241 4863 1831 4863 
L 2375 4863 
z
" transform="scale(0.015625)"/>
       <path id="DejaVuSans-74" d="M 1172 4494 
L 1172 3500 
L 2356 3500 
L 2356 3053 
L 1172 3053 
L 1172 1153 
Q 1172 725 1289 603 
Q 1406 481 1766 481 
L 2356 481 
L 2356 0 
L 1766 0 
Q 1100 0 847 248 
Q 594 497 594 1153 
L 594 3053 
L 172 3053 
L 172 3500 
L 594 3500 
L 594 4494 
L 1172 4494 
z
" transform="scale(0.015625)"/>
       <path id="DejaVuSans-68" d="M 3513 2113 
L 3513 0 
L 2938 0 
L 2938 2094 
Q 2938 2591 2744 2837 
Q 2550 3084 2163 3084 
Q 1697 3084 1428 2787 
Q 1159 2491 1159 1978 
L 1159 0 
L 581 0 
L 581 4863 
L 1159 4863 
L 1159 2956 
Q 1366 3272 1645 3428 
Q 1925 3584 2291 3584 
Q 2894 3584 3203 3211 
Q 3513 2838 3513 2113 
z
" transform="scale(0.015625)"/>
       <path id="DejaVuSans-65" d="M 3597 1894 
L 3597 1613 
L 953 1613 
Q 991 1019 1311 708 
Q 1631 397 2203 397 
Q 2534 397 2845 478 
Q 3156 559 3463 722 
L 3463 178 
Q 3153 47 2828 -22 
Q 2503 -91 2169 -91 
Q 1331 -91 842 396 
Q 353 884 353 1716 
Q 353 2575 817 3079 
Q 1281 3584 2069 3584 
Q 2775 3584 3186 3129 
Q 3597 2675 3597 1894 
z
M 3022 2063 
Q 3016 2534 2758 2815 
Q 2500 3097 2075 3097 
Q 1594 3097 1305 2825 
Q 1016 2553 972 2059 
L 3022 2063 
z
" transform="scale(0.015625)"/>
       <path id="DejaVuSans-44" d="M 1259 4147 
L 1259 519 
L 2022 519 
Q 2988 519 3436 956 
Q 3884 1394 3884 2338 
Q 3884 3275 3436 3711 
Q 2988 4147 2022 4147 
L 1259 4147 
z
M 628 4666 
L 1925 4666 
Q 3281 4666 3915 4102 
Q 4550 3538 4550 2338 
Q 4550 1131 3912 565 
Q 3275 0 1925 0 
L 628 0 
L 628 4666 
z
" transform="scale(0.015625)"/>
       <path id="DejaVuSans-61" d="M 2194 1759 
Q 1497 1759 1228 1600 
Q 959 1441 959 1056 
Q 959 750 1161 570 
Q 1363 391 1709 391 
Q 2188 391 2477 730 
Q 2766 1069 2766 1631 
L 2766 1759 
L 2194 1759 
z
M 3341 1997 
L 3341 0 
L 2766 0 
L 2766 531 
Q 2569 213 2275 61 
Q 1981 -91 1556 -91 
Q 1019 -91 701 211 
Q 384 513 384 1019 
Q 384 1609 779 1909 
Q 1175 2209 1959 2209 
L 2766 2209 
L 2766 2266 
Q 2766 2663 2505 2880 
Q 2244 3097 1772 3097 
Q 1472 3097 1187 3025 
Q 903 2953 641 2809 
L 641 3341 
Q 956 3463 1253 3523 
Q 1550 3584 1831 3584 
Q 2591 3584 2966 3190 
Q 3341 2797 3341 1997 
z
" transform="scale(0.015625)"/>
       <path id="DejaVuSans-79" d="M 2059 -325 
Q 1816 -950 1584 -1140 
Q 1353 -1331 966 -1331 
L 506 -1331 
L 506 -850 
L 844 -850 
Q 1081 -850 1212 -737 
Q 1344 -625 1503 -206 
L 1606 56 
L 191 3500 
L 800 3500 
L 1894 763 
L 2988 3500 
L 3597 3500 
L 2059 -325 
z
" transform="scale(0.015625)"/>
      </defs>
      <use xlink:href="#DejaVuSans-48"/>
      <use xlink:href="#DejaVuSans-6f" x="75.195312"/>
      <use xlink:href="#DejaVuSans-75" x="136.376953"/>
      <use xlink:href="#DejaVuSans-72" x="199.755859"/>
      <use xlink:href="#DejaVuSans-20" x="240.869141"/>
      <use xlink:href="#DejaVuSans-6f" x="272.65625"/>
      <use xlink:href="#DejaVuSans-66" x="333.837891"/>
      <use xlink:href="#DejaVuSans-20" x="369.042969"/>
      <use xlink:href="#DejaVuSans-74" x="400.830078"/>
      <use xlink:href="#DejaVuSans-68" x="440.039062"/>
      <use xlink:href="#DejaVuSans-65" x="503.417969"/>
      <use xlink:href="#DejaVuSans-20" x="564.941406"/>
      <use xlink:href="#DejaVuSans-44" x="596.728516"/>
      <use xlink:href="#DejaVuSans-61" x="673.730469"/>
      <use xlink:href="#DejaVuSans-79" x="735.009766"/>
     </g>
    </g>
   </g>
   <g id="matplotlib.axis_2">
    <g id="ytick_1">
     <g id="line2d_11">
      <path d="M 126 412.913341 
L 907.2 412.913341 
" clip-path="url(#p6e35765037)" style="fill: none; stroke: #b0b0b0; stroke-width: 0.8; stroke-linecap: square"/>
     </g>
     <g id="line2d_12">
      <defs>
       <path id="m847f4d49cc" d="M 0 0 
L -3.5 0 
" style="stroke: #000000; stroke-width: 0.8"/>
      </defs>
      <g>
       <use xlink:href="#m847f4d49cc" x="126" y="412.913341" style="stroke: #000000; stroke-width: 0.8"/>
      </g>
     </g>
     <g id="text_7">
      <!-- 14000 -->
      <g transform="translate(87.1875 416.71256) scale(0.1 -0.1)">
       <defs>
        <path id="DejaVuSans-34" d="M 2419 4116 
L 825 1625 
L 2419 1625 
L 2419 4116 
z
M 2253 4666 
L 3047 4666 
L 3047 1625 
L 3713 1625 
L 3713 1100 
L 3047 1100 
L 3047 0 
L 2419 0 
L 2419 1100 
L 313 1100 
L 313 1709 
L 2253 4666 
z
" transform="scale(0.015625)"/>
       </defs>
       <use xlink:href="#DejaVuSans-31"/>
       <use xlink:href="#DejaVuSans-34" x="63.623047"/>
       <use xlink:href="#DejaVuSans-30" x="127.246094"/>
       <use xlink:href="#DejaVuSans-30" x="190.869141"/>
       <use xlink:href="#DejaVuSans-30" x="254.492188"/>
      </g>
     </g>
    </g>
    <g id="ytick_2">
     <g id="line2d_13">
      <path d="M 126 327.504153 
L 907.2 327.504153 
" clip-path="url(#p6e35765037)" style="fill: none; stroke: #b0b0b0; stroke-width: 0.8; stroke-linecap: square"/>
     </g>
     <g id="line2d_14">
      <g>
       <use xlink:href="#m847f4d49cc" x="126" y="327.504153" style="stroke: #000000; stroke-width: 0.8"/>
      </g>
     </g>
     <g id="text_8">
      <!-- 16000 -->
      <g transform="translate(87.1875 331.303372) scale(0.1 -0.1)">
       <defs>
        <path id="DejaVuSans-36" d="M 2113 2584 
Q 1688 2584 1439 2293 
Q 1191 2003 1191 1497 
Q 1191 994 1439 701 
Q 1688 409 2113 409 
Q 2538 409 2786 701 
Q 3034 994 3034 1497 
Q 3034 2003 2786 2293 
Q 2538 2584 2113 2584 
z
M 3366 4563 
L 3366 3988 
Q 3128 4100 2886 4159 
Q 2644 4219 2406 4219 
Q 1781 4219 1451 3797 
Q 1122 3375 1075 2522 
Q 1259 2794 1537 2939 
Q 1816 3084 2150 3084 
Q 2853 3084 3261 2657 
Q 3669 2231 3669 1497 
Q 3669 778 3244 343 
Q 2819 -91 2113 -91 
Q 1303 -91 875 529 
Q 447 1150 447 2328 
Q 447 3434 972 4092 
Q 1497 4750 2381 4750 
Q 2619 4750 2861 4703 
Q 3103 4656 3366 4563 
z
" transform="scale(0.015625)"/>
       </defs>
       <use xlink:href="#DejaVuSans-31"/>
       <use xlink:href="#DejaVuSans-36" x="63.623047"/>
       <use xlink:href="#DejaVuSans-30" x="127.246094"/>
       <use xlink:href="#DejaVuSans-30" x="190.869141"/>
       <use xlink:href="#DejaVuSans-30" x="254.492188"/>
      </g>
     </g>
    </g>
    <g id="ytick_3">
     <g id="line2d_15">
      <path d="M 126 242.094965 
L 907.2 242.094965 
" clip-path="url(#p6e35765037)" style="fill: none; stroke: #b0b0b0; stroke-width: 0.8; stroke-linecap: square"/>
     </g>
     <g id="line2d_16">
      <g>
       <use xlink:href="#m847f4d49cc" x="126" y="242.094965" style="stroke: #000000; stroke-width: 0.8"/>
      </g>
     </g>
     <g id="text_9">
      <!-- 18000 -->
      <g transform="translate(87.1875 245.894184) scale(0.1 -0.1)">
       <defs>
        <path id="DejaVuSans-38" d="M 2034 2216 
Q 1584 2216 1326 1975 
Q 1069 1734 1069 1313 
Q 1069 891 1326 650 
Q 1584 409 2034 409 
Q 2484 409 2743 651 
Q 3003 894 3003 1313 
Q 3003 1734 2745 1975 
Q 2488 2216 2034 2216 
z
M 1403 2484 
Q 997 2584 770 2862 
Q 544 3141 544 3541 
Q 544 4100 942 4425 
Q 1341 4750 2034 4750 
Q 2731 4750 3128 4425 
Q 3525 4100 3525 3541 
Q 3525 3141 3298 2862 
Q 3072 2584 2669 2484 
Q 3125 2378 3379 2068 
Q 3634 1759 3634 1313 
Q 3634 634 3220 271 
Q 2806 -91 2034 -91 
Q 1263 -91 848 271 
Q 434 634 434 1313 
Q 434 1759 690 2068 
Q 947 2378 1403 2484 
z
M 1172 3481 
Q 1172 3119 1398 2916 
Q 1625 2713 2034 2713 
Q 2441 2713 2670 2916 
Q 2900 3119 2900 3481 
Q 2900 3844 2670 4047 
Q 2441 4250 2034 4250 
Q 1625 4250 1398 4047 
Q 1172 3844 1172 3481 
z
" transform="scale(0.015625)"/>
       </defs>
       <use xlink:href="#DejaVuSans-31"/>
       <use xlink:href="#DejaVuSans-38" x="63.623047"/>
       <use xlink:href="#DejaVuSans-30" x="127.246094"/>
       <use xlink:href="#DejaVuSans-30" x="190.869141"/>
       <use xlink:href="#DejaVuSans-30" x="254.492188"/>
      </g>
     </g>
    </g>
    <g id="ytick_4">
     <g id="line2d_17">
      <path d="M 126 156.685777 
L 907.2 156.685777 
" clip-path="url(#p6e35765037)" style="fill: none; stroke: #b0b0b0; stroke-width: 0.8; stroke-linecap: square"/>
     </g>
     <g id="line2d_18">
      <g>
       <use xlink:href="#m847f4d49cc" x="126" y="156.685777" style="stroke: #000000; stroke-width: 0.8"/>
      </g>
     </g>
     <g id="text_10">
      <!-- 20000 -->
      <g transform="translate(87.1875 160.484996) scale(0.1 -0.1)">
       <use xlink:href="#DejaVuSans-32"/>
       <use xlink:href="#DejaVuSans-30" x="63.623047"/>
       <use xlink:href="#DejaVuSans-30" x="127.246094"/>
       <use xlink:href="#DejaVuSans-30" x="190.869141"/>
       <use xlink:href="#DejaVuSans-30" x="254.492188"/>
      </g>
     </g>
    </g>
    <g id="ytick_5">
     <g id="line2d_19">
      <path d="M 126 71.276589 
L 907.2 71.276589 
" clip-path="url(#p6e35765037)" style="fill: none; stroke: #b0b0b0; stroke-width: 0.8; stroke-linecap: square"/>
     </g>
     <g id="line2d_20">
      <g>
       <use xlink:href="#m847f4d49cc" x="126" y="71.276589" style="stroke: #000000; stroke-width: 0.8"/>
      </g>
     </g>
     <g id="text_11">
      <!-- 22000 -->
      <g transform="translate(87.1875 75.075808) scale(0.1 -0.1)">
       <use xlink:href="#DejaVuSans-32"/>
       <use xlink:href="#DejaVuSans-32" x="63.623047"/>
       <use xlink:href="#DejaVuSans-30" x="127.246094"/>
       <use xlink:href="#DejaVuSans-30" x="190.869141"/>
       <use xlink:href="#DejaVuSans-30" x="254.492188"/>
      </g>
     </g>
    </g>
    <g id="text_12">
     <!-- Peak Supply Needed (MW) -->
     <g transform="translate(81.107812 320.674688) rotate(-90) scale(0.1 -0.1)">
      <defs>
       <path id="DejaVuSans-50" d="M 1259 4147 
L 1259 2394 
L 2053 2394 
Q 2494 2394 2734 2622 
Q 2975 2850 2975 3272 
Q 2975 3691 2734 3919 
Q 2494 4147 2053 4147 
L 1259 4147 
z
M 628 4666 
L 2053 4666 
Q 2838 4666 3239 4311 
Q 3641 3956 3641 3272 
Q 3641 2581 3239 2228 
Q 2838 1875 2053 1875 
L 1259 1875 
L 1259 0 
L 628 0 
L 628 4666 
z
" transform="scale(0.015625)"/>
       <path id="DejaVuSans-6b" d="M 581 4863 
L 1159 4863 
L 1159 1991 
L 2875 3500 
L 3609 3500 
L 1753 1863 
L 3688 0 
L 2938 0 
L 1159 1709 
L 1159 0 
L 581 0 
L 581 4863 
z
" transform="scale(0.015625)"/>
       <path id="DejaVuSans-53" d="M 3425 4513 
L 3425 3897 
Q 3066 4069 2747 4153 
Q 2428 4238 2131 4238 
Q 1616 4238 1336 4038 
Q 1056 3838 1056 3469 
Q 1056 3159 1242 3001 
Q 1428 2844 1947 2747 
L 2328 2669 
Q 3034 2534 3370 2195 
Q 3706 1856 3706 1288 
Q 3706 609 3251 259 
Q 2797 -91 1919 -91 
Q 1588 -91 1214 -16 
Q 841 59 441 206 
L 441 856 
Q 825 641 1194 531 
Q 1563 422 1919 422 
Q 2459 422 2753 634 
Q 3047 847 3047 1241 
Q 3047 1584 2836 1778 
Q 2625 1972 2144 2069 
L 1759 2144 
Q 1053 2284 737 2584 
Q 422 2884 422 3419 
Q 422 4038 858 4394 
Q 1294 4750 2059 4750 
Q 2388 4750 2728 4690 
Q 3069 4631 3425 4513 
z
" transform="scale(0.015625)"/>
       <path id="DejaVuSans-70" d="M 1159 525 
L 1159 -1331 
L 581 -1331 
L 581 3500 
L 1159 3500 
L 1159 2969 
Q 1341 3281 1617 3432 
Q 1894 3584 2278 3584 
Q 2916 3584 3314 3078 
Q 3713 2572 3713 1747 
Q 3713 922 3314 415 
Q 2916 -91 2278 -91 
Q 1894 -91 1617 61 
Q 1341 213 1159 525 
z
M 3116 1747 
Q 3116 2381 2855 2742 
Q 2594 3103 2138 3103 
Q 1681 3103 1420 2742 
Q 1159 2381 1159 1747 
Q 1159 1113 1420 752 
Q 1681 391 2138 391 
Q 2594 391 2855 752 
Q 3116 1113 3116 1747 
z
" transform="scale(0.015625)"/>
       <path id="DejaVuSans-6c" d="M 603 4863 
L 1178 4863 
L 1178 0 
L 603 0 
L 603 4863 
z
" transform="scale(0.015625)"/>
       <path id="DejaVuSans-4e" d="M 628 4666 
L 1478 4666 
L 3547 763 
L 3547 4666 
L 4159 4666 
L 4159 0 
L 3309 0 
L 1241 3903 
L 1241 0 
L 628 0 
L 628 4666 
z
" transform="scale(0.015625)"/>
       <path id="DejaVuSans-64" d="M 2906 2969 
L 2906 4863 
L 3481 4863 
L 3481 0 
L 2906 0 
L 2906 525 
Q 2725 213 2448 61 
Q 2172 -91 1784 -91 
Q 1150 -91 751 415 
Q 353 922 353 1747 
Q 353 2572 751 3078 
Q 1150 3584 1784 3584 
Q 2172 3584 2448 3432 
Q 2725 3281 2906 2969 
z
M 947 1747 
Q 947 1113 1208 752 
Q 1469 391 1925 391 
Q 2381 391 2643 752 
Q 2906 1113 2906 1747 
Q 2906 2381 2643 2742 
Q 2381 3103 1925 3103 
Q 1469 3103 1208 2742 
Q 947 2381 947 1747 
z
" transform="scale(0.015625)"/>
       <path id="DejaVuSans-28" d="M 1984 4856 
Q 1566 4138 1362 3434 
Q 1159 2731 1159 2009 
Q 1159 1288 1364 580 
Q 1569 -128 1984 -844 
L 1484 -844 
Q 1016 -109 783 600 
Q 550 1309 550 2009 
Q 550 2706 781 3412 
Q 1013 4119 1484 4856 
L 1984 4856 
z
" transform="scale(0.015625)"/>
       <path id="DejaVuSans-4d" d="M 628 4666 
L 1569 4666 
L 2759 1491 
L 3956 4666 
L 4897 4666 
L 4897 0 
L 4281 0 
L 4281 4097 
L 3078 897 
L 2444 897 
L 1241 4097 
L 1241 0 
L 628 0 
L 628 4666 
z
" transform="scale(0.015625)"/>
       <path id="DejaVuSans-57" d="M 213 4666 
L 850 4666 
L 1831 722 
L 2809 4666 
L 3519 4666 
L 4500 722 
L 5478 4666 
L 6119 4666 
L 4947 0 
L 4153 0 
L 3169 4050 
L 2175 0 
L 1381 0 
L 213 4666 
z
" transform="scale(0.015625)"/>
       <path id="DejaVuSans-29" d="M 513 4856 
L 1013 4856 
Q 1481 4119 1714 3412 
Q 1947 2706 1947 2009 
Q 1947 1309 1714 600 
Q 1481 -109 1013 -844 
L 513 -844 
Q 928 -128 1133 580 
Q 1338 1288 1338 2009 
Q 1338 2731 1133 3434 
Q 928 4138 513 4856 
z
" transform="scale(0.015625)"/>
      </defs>
      <use xlink:href="#DejaVuSans-50"/>
      <use xlink:href="#DejaVuSans-65" x="56.677734"/>
      <use xlink:href="#DejaVuSans-61" x="118.201172"/>
      <use xlink:href="#DejaVuSans-6b" x="179.480469"/>
      <use xlink:href="#DejaVuSans-20" x="237.390625"/>
      <use xlink:href="#DejaVuSans-53" x="269.177734"/>
      <use xlink:href="#DejaVuSans-75" x="332.654297"/>
      <use xlink:href="#DejaVuSans-70" x="396.033203"/>
      <use xlink:href="#DejaVuSans-70" x="459.509766"/>
      <use xlink:href="#DejaVuSans-6c" x="522.986328"/>
      <use xlink:href="#DejaVuSans-79" x="550.769531"/>
      <use xlink:href="#DejaVuSans-20" x="609.949219"/>
      <use xlink:href="#DejaVuSans-4e" x="641.736328"/>
      <use xlink:href="#DejaVuSans-65" x="716.541016"/>
      <use xlink:href="#DejaVuSans-65" x="778.064453"/>
      <use xlink:href="#DejaVuSans-64" x="839.587891"/>
      <use xlink:href="#DejaVuSans-65" x="903.064453"/>
      <use xlink:href="#DejaVuSans-64" x="964.587891"/>
      <use xlink:href="#DejaVuSans-20" x="1028.064453"/>
      <use xlink:href="#DejaVuSans-28" x="1059.851562"/>
      <use xlink:href="#DejaVuSans-4d" x="1098.865234"/>
      <use xlink:href="#DejaVuSans-57" x="1185.144531"/>
      <use xlink:href="#DejaVuSans-29" x="1284.021484"/>
     </g>
    </g>
   </g>
   <g id="line2d_21">
    <path d="M 161.509091 292.379719 
L 192.386561 327.047613 
L 223.264032 361.249415 
L 254.141502 386.658732 
L 285.018972 399.16642 
L 315.896443 398.887472 
L 346.773913 372.935053 
L 377.651383 329.468924 
L 408.528854 287.845027 
L 439.406324 249.683948 
L 470.283794 219.447889 
L 501.161265 193.117234 
L 532.038735 172.614693 
L 562.916206 158.056277 
L 593.793676 154.030956 
L 624.671146 151.268827 
L 655.548617 153.290998 
L 686.426087 154.896858 
L 717.303557 161.656463 
L 748.181028 132.424526 
L 779.058498 146.453673 
L 809.935968 165.052583 
L 840.813439 187.476995 
L 871.690909 208.991093 
" clip-path="url(#p6e35765037)" style="fill: none; stroke: #0000ff; stroke-width: 1.5; stroke-linecap: square"/>
    <defs>
     <path id="m1d635cb99e" d="M 0 3 
C 0.795609 3 1.55874 2.683901 2.12132 2.12132 
C 2.683901 1.55874 3 0.795609 3 0 
C 3 -0.795609 2.683901 -1.55874 2.12132 -2.12132 
C 1.55874 -2.683901 0.795609 -3 0 -3 
C -0.795609 -3 -1.55874 -2.683901 -2.12132 -2.12132 
C -2.683901 -1.55874 -3 -0.795609 -3 0 
C -3 0.795609 -2.683901 1.55874 -2.12132 2.12132 
C -1.55874 2.683901 -0.795609 3 0 3 
z
" style="stroke: #ffffff; stroke-width: 0.75"/>
    </defs>
    <g clip-path="url(#p6e35765037)">
     <use xlink:href="#m1d635cb99e" x="161.509091" y="292.379719" style="fill: #0000ff; stroke: #ffffff; stroke-width: 0.75"/>
     <use xlink:href="#m1d635cb99e" x="192.386561" y="327.047613" style="fill: #0000ff; stroke: #ffffff; stroke-width: 0.75"/>
     <use xlink:href="#m1d635cb99e" x="223.264032" y="361.249415" style="fill: #0000ff; stroke: #ffffff; stroke-width: 0.75"/>
     <use xlink:href="#m1d635cb99e" x="254.141502" y="386.658732" style="fill: #0000ff; stroke: #ffffff; stroke-width: 0.75"/>
     <use xlink:href="#m1d635cb99e" x="285.018972" y="399.16642" style="fill: #0000ff; stroke: #ffffff; stroke-width: 0.75"/>
     <use xlink:href="#m1d635cb99e" x="315.896443" y="398.887472" style="fill: #0000ff; stroke: #ffffff; stroke-width: 0.75"/>
     <use xlink:href="#m1d635cb99e" x="346.773913" y="372.935053" style="fill: #0000ff; stroke: #ffffff; stroke-width: 0.75"/>
     <use xlink:href="#m1d635cb99e" x="377.651383" y="329.468924" style="fill: #0000ff; stroke: #ffffff; stroke-width: 0.75"/>
     <use xlink:href="#m1d635cb99e" x="408.528854" y="287.845027" style="fill: #0000ff; stroke: #ffffff; stroke-width: 0.75"/>
     <use xlink:href="#m1d635cb99e" x="439.406324" y="249.683948" style="fill: #0000ff; stroke: #ffffff; stroke-width: 0.75"/>
     <use xlink:href="#m1d635cb99e" x="470.283794" y="219.447889" style="fill: #0000ff; stroke: #ffffff; stroke-width: 0.75"/>
     <use xlink:href="#m1d635cb99e" x="501.161265" y="193.117234" style="fill: #0000ff; stroke: #ffffff; stroke-width: 0.75"/>
     <use xlink:href="#m1d635cb99e" x="532.038735" y="172.614693" style="fill: #0000ff; stroke: #ffffff; stroke-width: 0.75"/>
     <use xlink:href="#m1d635cb99e" x="562.916206" y="158.056277" style="fill: #0000ff; stroke: #ffffff; stroke-width: 0.75"/>
     <use xlink:href="#m1d635cb99e" x="593.793676" y="154.030956" style="fill: #0000ff; stroke: #ffffff; stroke-width: 0.75"/>
     <use xlink:href="#m1d635cb99e" x="624.671146" y="151.268827" style="fill: #0000ff; stroke: #ffffff; stroke-width: 0.75"/>
     <use xlink:href="#m1d635cb99e" x="655.548617" y="153.290998" style="fill: #0000ff; stroke: #ffffff; stroke-width: 0.75"/>
     <use xlink:href="#m1d635cb99e" x="686.426087" y="154.896858" style="fill: #0000ff; stroke: #ffffff; stroke-width: 0.75"/>
     <use xlink:href="#m1d635cb99e" x="717.303557" y="161.656463" style="fill: #0000ff; stroke: #ffffff; stroke-width: 0.75"/>
     <use xlink:href="#m1d635cb99e" x="748.181028" y="132.424526" style="fill: #0000ff; stroke: #ffffff; stroke-width: 0.75"/>
     <use xlink:href="#m1d635cb99e" x="779.058498" y="146.453673" style="fill: #0000ff; stroke: #ffffff; stroke-width: 0.75"/>
     <use xlink:href="#m1d635cb99e" x="809.935968" y="165.052583" style="fill: #0000ff; stroke: #ffffff; stroke-width: 0.75"/>
     <use xlink:href="#m1d635cb99e" x="840.813439" y="187.476995" style="fill: #0000ff; stroke: #ffffff; stroke-width: 0.75"/>
     <use xlink:href="#m1d635cb99e" x="871.690909" y="208.991093" style="fill: #0000ff; stroke: #ffffff; stroke-width: 0.75"/>
    </g>
   </g>
   <g id="line2d_22">
    <path d="M 161.509091 304.347751 
L 192.386561 328.79464 
L 223.264032 353.474407 
L 254.141502 378.096909 
L 285.018972 399.791592 
L 315.896443 400.470176 
L 346.773913 380.659779 
L 377.651383 338.188125 
L 408.528854 280.230569 
L 439.406324 236.894316 
L 470.283794 211.107811 
L 501.161265 190.318342 
L 532.038735 174.885431 
L 562.916206 161.811123 
L 593.793676 159.207428 
L 624.671146 153.76696 
L 655.548617 153.291513 
L 686.426087 149.600441 
L 717.303557 151.047322 
L 748.181028 136.009529 
L 779.058498 145.822041 
L 809.935968 162.071188 
L 840.813439 185.09588 
L 871.690909 208.96456 
" clip-path="url(#p6e35765037)" style="fill: none; stroke: #008000; stroke-width: 1.5; stroke-linecap: square"/>
    <defs>
     <path id="m2594519286" d="M 0 3 
C 0.795609 3 1.55874 2.683901 2.12132 2.12132 
C 2.683901 1.55874 3 0.795609 3 0 
C 3 -0.795609 2.683901 -1.55874 2.12132 -2.12132 
C 1.55874 -2.683901 0.795609 -3 0 -3 
C -0.795609 -3 -1.55874 -2.683901 -2.12132 -2.12132 
C -2.683901 -1.55874 -3 -0.795609 -3 0 
C -3 0.795609 -2.683901 1.55874 -2.12132 2.12132 
C -1.55874 2.683901 -0.795609 3 0 3 
z
" style="stroke: #ffffff; stroke-width: 0.75"/>
    </defs>
    <g clip-path="url(#p6e35765037)">
     <use xlink:href="#m2594519286" x="161.509091" y="304.347751" style="fill: #008000; stroke: #ffffff; stroke-width: 0.75"/>
     <use xlink:href="#m2594519286" x="192.386561" y="328.79464" style="fill: #008000; stroke: #ffffff; stroke-width: 0.75"/>
     <use xlink:href="#m2594519286" x="223.264032" y="353.474407" style="fill: #008000; stroke: #ffffff; stroke-width: 0.75"/>
     <use xlink:href="#m2594519286" x="254.141502" y="378.096909" style="fill: #008000; stroke: #ffffff; stroke-width: 0.75"/>
     <use xlink:href="#m2594519286" x="285.018972" y="399.791592" style="fill: #008000; stroke: #ffffff; stroke-width: 0.75"/>
     <use xlink:href="#m2594519286" x="315.896443" y="400.470176" style="fill: #008000; stroke: #ffffff; stroke-width: 0.75"/>
     <use xlink:href="#m2594519286" x="346.773913" y="380.659779" style="fill: #008000; stroke: #ffffff; stroke-width: 0.75"/>
     <use xlink:href="#m2594519286" x="377.651383" y="338.188125" style="fill: #008000; stroke: #ffffff; stroke-width: 0.75"/>
     <use xlink:href="#m2594519286" x="408.528854" y="280.230569" style="fill: #008000; stroke: #ffffff; stroke-width: 0.75"/>
     <use xlink:href="#m2594519286" x="439.406324" y="236.894316" style="fill: #008000; stroke: #ffffff; stroke-width: 0.75"/>
     <use xlink:href="#m2594519286" x="470.283794" y="211.107811" style="fill: #008000; stroke: #ffffff; stroke-width: 0.75"/>
     <use xlink:href="#m2594519286" x="501.161265" y="190.318342" style="fill: #008000; stroke: #ffffff; stroke-width: 0.75"/>
     <use xlink:href="#m2594519286" x="532.038735" y="174.885431" style="fill: #008000; stroke: #ffffff; stroke-width: 0.75"/>
     <use xlink:href="#m2594519286" x="562.916206" y="161.811123" style="fill: #008000; stroke: #ffffff; stroke-width: 0.75"/>
     <use xlink:href="#m2594519286" x="593.793676" y="159.207428" style="fill: #008000; stroke: #ffffff; stroke-width: 0.75"/>
     <use xlink:href="#m2594519286" x="624.671146" y="153.76696" style="fill: #008000; stroke: #ffffff; stroke-width: 0.75"/>
     <use xlink:href="#m2594519286" x="655.548617" y="153.291513" style="fill: #008000; stroke: #ffffff; stroke-width: 0.75"/>
     <use xlink:href="#m2594519286" x="686.426087" y="149.600441" style="fill: #008000; stroke: #ffffff; stroke-width: 0.75"/>
     <use xlink:href="#m2594519286" x="717.303557" y="151.047322" style="fill: #008000; stroke: #ffffff; stroke-width: 0.75"/>
     <use xlink:href="#m2594519286" x="748.181028" y="136.009529" style="fill: #008000; stroke: #ffffff; stroke-width: 0.75"/>
     <use xlink:href="#m2594519286" x="779.058498" y="145.822041" style="fill: #008000; stroke: #ffffff; stroke-width: 0.75"/>
     <use xlink:href="#m2594519286" x="809.935968" y="162.071188" style="fill: #008000; stroke: #ffffff; stroke-width: 0.75"/>
     <use xlink:href="#m2594519286" x="840.813439" y="185.09588" style="fill: #008000; stroke: #ffffff; stroke-width: 0.75"/>
     <use xlink:href="#m2594519286" x="871.690909" y="208.96456" style="fill: #008000; stroke: #ffffff; stroke-width: 0.75"/>
    </g>
   </g>
   <g id="line2d_23">
    <path d="M 161.509091 317.29462 
L 192.386561 338.849466 
L 223.264032 359.988119 
L 254.141502 380.982768 
L 285.018972 399.917457 
L 315.896443 404.330012 
L 346.773913 388.810409 
L 377.651383 345.555904 
L 408.528854 289.983613 
L 439.406324 239.116194 
L 470.283794 208.230866 
L 501.161265 189.05639 
L 532.038735 177.477658 
L 562.916206 167.972059 
L 593.793676 166.866601 
L 624.671146 162.499178 
L 655.548617 160.645854 
L 686.426087 157.407412 
L 717.303557 158.089794 
L 748.181028 155.110254 
L 779.058498 163.053038 
L 809.935968 173.346028 
L 840.813439 188.228055 
L 871.690909 200.928217 
" clip-path="url(#p6e35765037)" style="fill: none; stroke: #ffa500; stroke-width: 1.5; stroke-linecap: square"/>
    <defs>
     <path id="m6abca4bdb8" d="M 0 3 
C 0.795609 3 1.55874 2.683901 2.12132 2.12132 
C 2.683901 1.55874 3 0.795609 3 0 
C 3 -0.795609 2.683901 -1.55874 2.12132 -2.12132 
C 1.55874 -2.683901 0.795609 -3 0 -3 
C -0.795609 -3 -1.55874 -2.683901 -2.12132 -2.12132 
C -2.683901 -1.55874 -3 -0.795609 -3 0 
C -3 0.795609 -2.683901 1.55874 -2.12132 2.12132 
C -1.55874 2.683901 -0.795609 3 0 3 
z
" style="stroke: #ffffff; stroke-width: 0.75"/>
    </defs>
    <g clip-path="url(#p6e35765037)">
     <use xlink:href="#m6abca4bdb8" x="161.509091" y="317.29462" style="fill: #ffa500; stroke: #ffffff; stroke-width: 0.75"/>
     <use xlink:href="#m6abca4bdb8" x="192.386561" y="338.849466" style="fill: #ffa500; stroke: #ffffff; stroke-width: 0.75"/>
     <use xlink:href="#m6abca4bdb8" x="223.264032" y="359.988119" style="fill: #ffa500; stroke: #ffffff; stroke-width: 0.75"/>
     <use xlink:href="#m6abca4bdb8" x="254.141502" y="380.982768" style="fill: #ffa500; stroke: #ffffff; stroke-width: 0.75"/>
     <use xlink:href="#m6abca4bdb8" x="285.018972" y="399.917457" style="fill: #ffa500; stroke: #ffffff; stroke-width: 0.75"/>
     <use xlink:href="#m6abca4bdb8" x="315.896443" y="404.330012" style="fill: #ffa500; stroke: #ffffff; stroke-width: 0.75"/>
     <use xlink:href="#m6abca4bdb8" x="346.773913" y="388.810409" style="fill: #ffa500; stroke: #ffffff; stroke-width: 0.75"/>
     <use xlink:href="#m6abca4bdb8" x="377.651383" y="345.555904" style="fill: #ffa500; stroke: #ffffff; stroke-width: 0.75"/>
     <use xlink:href="#m6abca4bdb8" x="408.528854" y="289.983613" style="fill: #ffa500; stroke: #ffffff; stroke-width: 0.75"/>
     <use xlink:href="#m6abca4bdb8" x="439.406324" y="239.116194" style="fill: #ffa500; stroke: #ffffff; stroke-width: 0.75"/>
     <use xlink:href="#m6abca4bdb8" x="470.283794" y="208.230866" style="fill: #ffa500; stroke: #ffffff; stroke-width: 0.75"/>
     <use xlink:href="#m6abca4bdb8" x="501.161265" y="189.05639" style="fill: #ffa500; stroke: #ffffff; stroke-width: 0.75"/>
     <use xlink:href="#m6abca4bdb8" x="532.038735" y="177.477658" style="fill: #ffa500; stroke: #ffffff; stroke-width: 0.75"/>
     <use xlink:href="#m6abca4bdb8" x="562.916206" y="167.972059" style="fill: #ffa500; stroke: #ffffff; stroke-width: 0.75"/>
     <use xlink:href="#m6abca4bdb8" x="593.793676" y="166.866601" style="fill: #ffa500; stroke: #ffffff; stroke-width: 0.75"/>
     <use xlink:href="#m6abca4bdb8" x="624.671146" y="162.499178" style="fill: #ffa500; stroke: #ffffff; stroke-width: 0.75"/>
     <use xlink:href="#m6abca4bdb8" x="655.548617" y="160.645854" style="fill: #ffa500; stroke: #ffffff; stroke-width: 0.75"/>
     <use xlink:href="#m6abca4bdb8" x="686.426087" y="157.407412" style="fill: #ffa500; stroke: #ffffff; stroke-width: 0.75"/>
     <use xlink:href="#m6abca4bdb8" x="717.303557" y="158.089794" style="fill: #ffa500; stroke: #ffffff; stroke-width: 0.75"/>
     <use xlink:href="#m6abca4bdb8" x="748.181028" y="155.110254" style="fill: #ffa500; stroke: #ffffff; stroke-width: 0.75"/>
     <use xlink:href="#m6abca4bdb8" x="779.058498" y="163.053038" style="fill: #ffa500; stroke: #ffffff; stroke-width: 0.75"/>
     <use xlink:href="#m6abca4bdb8" x="809.935968" y="173.346028" style="fill: #ffa500; stroke: #ffffff; stroke-width: 0.75"/>
     <use xlink:href="#m6abca4bdb8" x="840.813439" y="188.228055" style="fill: #ffa500; stroke: #ffffff; stroke-width: 0.75"/>
     <use xlink:href="#m6abca4bdb8" x="871.690909" y="200.928217" style="fill: #ffa500; stroke: #ffffff; stroke-width: 0.75"/>
    </g>
   </g>
   <g id="line2d_24">
    <path d="M 161.509091 375.933103 
L 192.386561 371.114625 
L 223.264032 364.610273 
L 254.141502 361.751257 
L 285.018972 355.550425 
L 315.896443 349.234175 
L 346.773913 349.171204 
L 377.651383 318.506291 
L 408.528854 291.294464 
L 439.406324 263.536425 
L 470.283794 243.74495 
L 501.161265 223.850417 
L 532.038735 210.375729 
L 562.916206 195.961496 
L 593.793676 186.225262 
L 624.671146 173.633126 
L 655.548617 164.308346 
L 686.426087 154.765661 
L 717.303557 148.356539 
L 748.181028 201.459874 
L 779.058498 192.633328 
L 809.935968 184.560695 
L 840.813439 182.139397 
L 871.690909 173.514575 
" clip-path="url(#p6e35765037)" style="fill: none; stroke: #800080; stroke-width: 1.5; stroke-linecap: square"/>
    <defs>
     <path id="m8e74ceda88" d="M 0 3 
C 0.795609 3 1.55874 2.683901 2.12132 2.12132 
C 2.683901 1.55874 3 0.795609 3 0 
C 3 -0.795609 2.683901 -1.55874 2.12132 -2.12132 
C 1.55874 -2.683901 0.795609 -3 0 -3 
C -0.795609 -3 -1.55874 -2.683901 -2.12132 -2.12132 
C -2.683901 -1.55874 -3 -0.795609 -3 0 
C -3 0.795609 -2.683901 1.55874 -2.12132 2.12132 
C -1.55874 2.683901 -0.795609 3 0 3 
z
" style="stroke: #ffffff; stroke-width: 0.75"/>
    </defs>
    <g clip-path="url(#p6e35765037)">
     <use xlink:href="#m8e74ceda88" x="161.509091" y="375.933103" style="fill: #800080; stroke: #ffffff; stroke-width: 0.75"/>
     <use xlink:href="#m8e74ceda88" x="192.386561" y="371.114625" style="fill: #800080; stroke: #ffffff; stroke-width: 0.75"/>
     <use xlink:href="#m8e74ceda88" x="223.264032" y="364.610273" style="fill: #800080; stroke: #ffffff; stroke-width: 0.75"/>
     <use xlink:href="#m8e74ceda88" x="254.141502" y="361.751257" style="fill: #800080; stroke: #ffffff; stroke-width: 0.75"/>
     <use xlink:href="#m8e74ceda88" x="285.018972" y="355.550425" style="fill: #800080; stroke: #ffffff; stroke-width: 0.75"/>
     <use xlink:href="#m8e74ceda88" x="315.896443" y="349.234175" style="fill: #800080; stroke: #ffffff; stroke-width: 0.75"/>
     <use xlink:href="#m8e74ceda88" x="346.773913" y="349.171204" style="fill: #800080; stroke: #ffffff; stroke-width: 0.75"/>
     <use xlink:href="#m8e74ceda88" x="377.651383" y="318.506291" style="fill: #800080; stroke: #ffffff; stroke-width: 0.75"/>
     <use xlink:href="#m8e74ceda88" x="408.528854" y="291.294464" style="fill: #800080; stroke: #ffffff; stroke-width: 0.75"/>
     <use xlink:href="#m8e74ceda88" x="439.406324" y="263.536425" style="fill: #800080; stroke: #ffffff; stroke-width: 0.75"/>
     <use xlink:href="#m8e74ceda88" x="470.283794" y="243.74495" style="fill: #800080; stroke: #ffffff; stroke-width: 0.75"/>
     <use xlink:href="#m8e74ceda88" x="501.161265" y="223.850417" style="fill: #800080; stroke: #ffffff; stroke-width: 0.75"/>
     <use xlink:href="#m8e74ceda88" x="532.038735" y="210.375729" style="fill: #800080; stroke: #ffffff; stroke-width: 0.75"/>
     <use xlink:href="#m8e74ceda88" x="562.916206" y="195.961496" style="fill: #800080; stroke: #ffffff; stroke-width: 0.75"/>
     <use xlink:href="#m8e74ceda88" x="593.793676" y="186.225262" style="fill: #800080; stroke: #ffffff; stroke-width: 0.75"/>
     <use xlink:href="#m8e74ceda88" x="624.671146" y="173.633126" style="fill: #800080; stroke: #ffffff; stroke-width: 0.75"/>
     <use xlink:href="#m8e74ceda88" x="655.548617" y="164.308346" style="fill: #800080; stroke: #ffffff; stroke-width: 0.75"/>
     <use xlink:href="#m8e74ceda88" x="686.426087" y="154.765661" style="fill: #800080; stroke: #ffffff; stroke-width: 0.75"/>
     <use xlink:href="#m8e74ceda88" x="717.303557" y="148.356539" style="fill: #800080; stroke: #ffffff; stroke-width: 0.75"/>
     <use xlink:href="#m8e74ceda88" x="748.181028" y="201.459874" style="fill: #800080; stroke: #ffffff; stroke-width: 0.75"/>
     <use xlink:href="#m8e74ceda88" x="779.058498" y="192.633328" style="fill: #800080; stroke: #ffffff; stroke-width: 0.75"/>
     <use xlink:href="#m8e74ceda88" x="809.935968" y="184.560695" style="fill: #800080; stroke: #ffffff; stroke-width: 0.75"/>
     <use xlink:href="#m8e74ceda88" x="840.813439" y="182.139397" style="fill: #800080; stroke: #ffffff; stroke-width: 0.75"/>
     <use xlink:href="#m8e74ceda88" x="871.690909" y="173.514575" style="fill: #800080; stroke: #ffffff; stroke-width: 0.75"/>
    </g>
   </g>
   <g id="line2d_25">
    <path d="M 161.509091 303.588545 
L 192.386561 330.419252 
L 223.264032 363.085357 
L 254.141502 388.288574 
L 285.018972 396.843085 
L 315.896443 399.544368 
L 346.773913 384.591203 
L 377.651383 339.186106 
L 408.528854 287.841191 
L 439.406324 240.303341 
L 470.283794 212.866643 
L 501.161265 188.240252 
L 532.038735 170.609214 
L 562.916206 163.01728 
L 593.793676 162.80631 
L 624.671146 159.593077 
L 655.548617 159.528486 
L 686.426087 156.257263 
L 717.303557 157.692761 
L 748.181028 136.351147 
L 779.058498 146.697192 
L 809.935968 166.172766 
L 840.813439 184.700808 
L 871.690909 201.016909 
" clip-path="url(#p6e35765037)" style="fill: none; stroke: #ff0000; stroke-width: 1.5; stroke-linecap: square"/>
    <defs>
     <path id="mc332e1f793" d="M 0 3 
C 0.795609 3 1.55874 2.683901 2.12132 2.12132 
C 2.683901 1.55874 3 0.795609 3 0 
C 3 -0.795609 2.683901 -1.55874 2.12132 -2.12132 
C 1.55874 -2.683901 0.795609 -3 0 -3 
C -0.795609 -3 -1.55874 -2.683901 -2.12132 -2.12132 
C -2.683901 -1.55874 -3 -0.795609 -3 0 
C -3 0.795609 -2.683901 1.55874 -2.12132 2.12132 
C -1.55874 2.683901 -0.795609 3 0 3 
z
" style="stroke: #ffffff; stroke-width: 0.75"/>
    </defs>
    <g clip-path="url(#p6e35765037)">
     <use xlink:href="#mc332e1f793" x="161.509091" y="303.588545" style="fill: #ff0000; stroke: #ffffff; stroke-width: 0.75"/>
     <use xlink:href="#mc332e1f793" x="192.386561" y="330.419252" style="fill: #ff0000; stroke: #ffffff; stroke-width: 0.75"/>
     <use xlink:href="#mc332e1f793" x="223.264032" y="363.085357" style="fill: #ff0000; stroke: #ffffff; stroke-width: 0.75"/>
     <use xlink:href="#mc332e1f793" x="254.141502" y="388.288574" style="fill: #ff0000; stroke: #ffffff; stroke-width: 0.75"/>
     <use xlink:href="#mc332e1f793" x="285.018972" y="396.843085" style="fill: #ff0000; stroke: #ffffff; stroke-width: 0.75"/>
     <use xlink:href="#mc332e1f793" x="315.896443" y="399.544368" style="fill: #ff0000; stroke: #ffffff; stroke-width: 0.75"/>
     <use xlink:href="#mc332e1f793" x="346.773913" y="384.591203" style="fill: #ff0000; stroke: #ffffff; stroke-width: 0.75"/>
     <use xlink:href="#mc332e1f793" x="377.651383" y="339.186106" style="fill: #ff0000; stroke: #ffffff; stroke-width: 0.75"/>
     <use xlink:href="#mc332e1f793" x="408.528854" y="287.841191" style="fill: #ff0000; stroke: #ffffff; stroke-width: 0.75"/>
     <use xlink:href="#mc332e1f793" x="439.406324" y="240.303341" style="fill: #ff0000; stroke: #ffffff; stroke-width: 0.75"/>
     <use xlink:href="#mc332e1f793" x="470.283794" y="212.866643" style="fill: #ff0000; stroke: #ffffff; stroke-width: 0.75"/>
     <use xlink:href="#mc332e1f793" x="501.161265" y="188.240252" style="fill: #ff0000; stroke: #ffffff; stroke-width: 0.75"/>
     <use xlink:href="#mc332e1f793" x="532.038735" y="170.609214" style="fill: #ff0000; stroke: #ffffff; stroke-width: 0.75"/>
     <use xlink:href="#mc332e1f793" x="562.916206" y="163.01728" style="fill: #ff0000; stroke: #ffffff; stroke-width: 0.75"/>
     <use xlink:href="#mc332e1f793" x="593.793676" y="162.80631" style="fill: #ff0000; stroke: #ffffff; stroke-width: 0.75"/>
     <use xlink:href="#mc332e1f793" x="624.671146" y="159.593077" style="fill: #ff0000; stroke: #ffffff; stroke-width: 0.75"/>
     <use xlink:href="#mc332e1f793" x="655.548617" y="159.528486" style="fill: #ff0000; stroke: #ffffff; stroke-width: 0.75"/>
     <use xlink:href="#mc332e1f793" x="686.426087" y="156.257263" style="fill: #ff0000; stroke: #ffffff; stroke-width: 0.75"/>
     <use xlink:href="#mc332e1f793" x="717.303557" y="157.692761" style="fill: #ff0000; stroke: #ffffff; stroke-width: 0.75"/>
     <use xlink:href="#mc332e1f793" x="748.181028" y="136.351147" style="fill: #ff0000; stroke: #ffffff; stroke-width: 0.75"/>
     <use xlink:href="#mc332e1f793" x="779.058498" y="146.697192" style="fill: #ff0000; stroke: #ffffff; stroke-width: 0.75"/>
     <use xlink:href="#mc332e1f793" x="809.935968" y="166.172766" style="fill: #ff0000; stroke: #ffffff; stroke-width: 0.75"/>
     <use xlink:href="#mc332e1f793" x="840.813439" y="184.700808" style="fill: #ff0000; stroke: #ffffff; stroke-width: 0.75"/>
     <use xlink:href="#mc332e1f793" x="871.690909" y="201.016909" style="fill: #ff0000; stroke: #ffffff; stroke-width: 0.75"/>
    </g>
   </g>
   <g id="line2d_26">
    <path d="M 161.509091 267.102775 
L 192.386561 316.623022 
L 223.264032 353.588119 
L 254.141502 379.193794 
L 285.018972 403.251427 
L 315.896443 409.251422 
L 346.773913 406.06993 
L 377.651383 383.372438 
L 408.528854 338.148273 
L 439.406324 289.208808 
L 470.283794 246.055816 
L 501.161265 209.287161 
L 532.038735 183.963336 
L 562.916206 166.283634 
L 593.793676 154.561223 
L 624.671146 148.102153 
L 655.548617 142.710698 
L 686.426087 136.593265 
L 717.303557 137.32992 
L 748.181028 153.920654 
L 779.058498 176.212452 
L 809.935968 187.091448 
L 840.813439 192.248028 
L 871.690909 230.10565 
" clip-path="url(#p6e35765037)" style="fill: none; stroke: #1f77b4; stroke-width: 1.5; stroke-linecap: square"/>
   </g>
   <g id="patch_3">
    <path d="M 126 448.56 
L 126 60.48 
" style="fill: none; stroke: #000000; stroke-width: 0.8; stroke-linejoin: miter; stroke-linecap: square"/>
   </g>
   <g id="patch_4">
    <path d="M 907.2 448.56 
L 907.2 60.48 
" style="fill: none; stroke: #000000; stroke-width: 0.8; stroke-linejoin: miter; stroke-linecap: square"/>
   </g>
   <g id="patch_5">
    <path d="M 126 448.56 
L 907.2 448.56 
" style="fill: none; stroke: #000000; stroke-width: 0.8; stroke-linejoin: miter; stroke-linecap: square"/>
   </g>
   <g id="patch_6">
    <path d="M 126 60.48 
L 907.2 60.48 
" style="fill: none; stroke: #000000; stroke-width: 0.8; stroke-linejoin: miter; stroke-linecap: square"/>
   </g>
   <g id="text_13">
    <!-- Peak Supply Needed vs Hour of the Day for Different Models -->
    <g transform="translate(335.277188 54.48) scale(0.12 -0.12)">
     <defs>
      <path id="DejaVuSans-76" d="M 191 3500 
L 800 3500 
L 1894 563 
L 2988 3500 
L 3597 3500 
L 2284 0 
L 1503 0 
L 191 3500 
z
" transform="scale(0.015625)"/>
      <path id="DejaVuSans-73" d="M 2834 3397 
L 2834 2853 
Q 2591 2978 2328 3040 
Q 2066 3103 1784 3103 
Q 1356 3103 1142 2972 
Q 928 2841 928 2578 
Q 928 2378 1081 2264 
Q 1234 2150 1697 2047 
L 1894 2003 
Q 2506 1872 2764 1633 
Q 3022 1394 3022 966 
Q 3022 478 2636 193 
Q 2250 -91 1575 -91 
Q 1294 -91 989 -36 
Q 684 19 347 128 
L 347 722 
Q 666 556 975 473 
Q 1284 391 1588 391 
Q 1994 391 2212 530 
Q 2431 669 2431 922 
Q 2431 1156 2273 1281 
Q 2116 1406 1581 1522 
L 1381 1569 
Q 847 1681 609 1914 
Q 372 2147 372 2553 
Q 372 3047 722 3315 
Q 1072 3584 1716 3584 
Q 2034 3584 2315 3537 
Q 2597 3491 2834 3397 
z
" transform="scale(0.015625)"/>
      <path id="DejaVuSans-69" d="M 603 3500 
L 1178 3500 
L 1178 0 
L 603 0 
L 603 3500 
z
M 603 4863 
L 1178 4863 
L 1178 4134 
L 603 4134 
L 603 4863 
z
" transform="scale(0.015625)"/>
      <path id="DejaVuSans-6e" d="M 3513 2113 
L 3513 0 
L 2938 0 
L 2938 2094 
Q 2938 2591 2744 2837 
Q 2550 3084 2163 3084 
Q 1697 3084 1428 2787 
Q 1159 2491 1159 1978 
L 1159 0 
L 581 0 
L 581 3500 
L 1159 3500 
L 1159 2956 
Q 1366 3272 1645 3428 
Q 1925 3584 2291 3584 
Q 2894 3584 3203 3211 
Q 3513 2838 3513 2113 
z
" transform="scale(0.015625)"/>
     </defs>
     <use xlink:href="#DejaVuSans-50"/>
     <use xlink:href="#DejaVuSans-65" x="56.677734"/>
     <use xlink:href="#DejaVuSans-61" x="118.201172"/>
     <use xlink:href="#DejaVuSans-6b" x="179.480469"/>
     <use xlink:href="#DejaVuSans-20" x="237.390625"/>
     <use xlink:href="#DejaVuSans-53" x="269.177734"/>
     <use xlink:href="#DejaVuSans-75" x="332.654297"/>
     <use xlink:href="#DejaVuSans-70" x="396.033203"/>
     <use xlink:href="#DejaVuSans-70" x="459.509766"/>
     <use xlink:href="#DejaVuSans-6c" x="522.986328"/>
     <use xlink:href="#DejaVuSans-79" x="550.769531"/>
     <use xlink:href="#DejaVuSans-20" x="609.949219"/>
     <use xlink:href="#DejaVuSans-4e" x="641.736328"/>
     <use xlink:href="#DejaVuSans-65" x="716.541016"/>
     <use xlink:href="#DejaVuSans-65" x="778.064453"/>
     <use xlink:href="#DejaVuSans-64" x="839.587891"/>
     <use xlink:href="#DejaVuSans-65" x="903.064453"/>
     <use xlink:href="#DejaVuSans-64" x="964.587891"/>
     <use xlink:href="#DejaVuSans-20" x="1028.064453"/>
     <use xlink:href="#DejaVuSans-76" x="1059.851562"/>
     <use xlink:href="#DejaVuSans-73" x="1119.03125"/>
     <use xlink:href="#DejaVuSans-20" x="1171.130859"/>
     <use xlink:href="#DejaVuSans-48" x="1202.917969"/>
     <use xlink:href="#DejaVuSans-6f" x="1278.113281"/>
     <use xlink:href="#DejaVuSans-75" x="1339.294922"/>
     <use xlink:href="#DejaVuSans-72" x="1402.673828"/>
     <use xlink:href="#DejaVuSans-20" x="1443.787109"/>
     <use xlink:href="#DejaVuSans-6f" x="1475.574219"/>
     <use xlink:href="#DejaVuSans-66" x="1536.755859"/>
     <use xlink:href="#DejaVuSans-20" x="1571.960938"/>
     <use xlink:href="#DejaVuSans-74" x="1603.748047"/>
     <use xlink:href="#DejaVuSans-68" x="1642.957031"/>
     <use xlink:href="#DejaVuSans-65" x="1706.335938"/>
     <use xlink:href="#DejaVuSans-20" x="1767.859375"/>
     <use xlink:href="#DejaVuSans-44" x="1799.646484"/>
     <use xlink:href="#DejaVuSans-61" x="1876.648438"/>
     <use xlink:href="#DejaVuSans-79" x="1937.927734"/>
     <use xlink:href="#DejaVuSans-20" x="1997.107422"/>
     <use xlink:href="#DejaVuSans-66" x="2028.894531"/>
     <use xlink:href="#DejaVuSans-6f" x="2064.099609"/>
     <use xlink:href="#DejaVuSans-72" x="2125.28125"/>
     <use xlink:href="#DejaVuSans-20" x="2166.394531"/>
     <use xlink:href="#DejaVuSans-44" x="2198.181641"/>
     <use xlink:href="#DejaVuSans-69" x="2275.183594"/>
     <use xlink:href="#DejaVuSans-66" x="2302.966797"/>
     <use xlink:href="#DejaVuSans-66" x="2338.171875"/>
     <use xlink:href="#DejaVuSans-65" x="2373.376953"/>
     <use xlink:href="#DejaVuSans-72" x="2434.900391"/>
     <use xlink:href="#DejaVuSans-65" x="2473.763672"/>
     <use xlink:href="#DejaVuSans-6e" x="2535.287109"/>
     <use xlink:href="#DejaVuSans-74" x="2598.666016"/>
     <use xlink:href="#DejaVuSans-20" x="2637.875"/>
     <use xlink:href="#DejaVuSans-4d" x="2669.662109"/>
     <use xlink:href="#DejaVuSans-6f" x="2755.941406"/>
     <use xlink:href="#DejaVuSans-64" x="2817.123047"/>
     <use xlink:href="#DejaVuSans-65" x="2880.599609"/>
     <use xlink:href="#DejaVuSans-6c" x="2942.123047"/>
     <use xlink:href="#DejaVuSans-73" x="2969.90625"/>
    </g>
   </g>
   <g id="legend_1">
    <g id="patch_7">
     <path d="M 133 156.54875 
L 342.917188 156.54875 
Q 344.917188 156.54875 344.917188 154.54875 
L 344.917188 67.48 
Q 344.917188 65.48 342.917188 65.48 
L 133 65.48 
Q 131 65.48 131 67.48 
L 131 154.54875 
Q 131 156.54875 133 156.54875 
z
" style="fill: #ffffff; opacity: 0.8; stroke: #cccccc; stroke-linejoin: miter"/>
    </g>
    <g id="text_14">
     <!-- Models -->
     <g transform="translate(220.340625 77.078438) scale(0.1 -0.1)">
      <use xlink:href="#DejaVuSans-4d"/>
      <use xlink:href="#DejaVuSans-6f" x="86.279297"/>
      <use xlink:href="#DejaVuSans-64" x="147.460938"/>
      <use xlink:href="#DejaVuSans-65" x="210.9375"/>
      <use xlink:href="#DejaVuSans-6c" x="272.460938"/>
      <use xlink:href="#DejaVuSans-73" x="300.244141"/>
     </g>
    </g>
    <g id="line2d_27">
     <path d="M 135 88.256563 
L 145 88.256563 
L 155 88.256563 
" style="fill: none; stroke: #0000ff; stroke-width: 1.5; stroke-linecap: square"/>
     <g>
      <use xlink:href="#m1d635cb99e" x="145" y="88.256563" style="fill: #0000ff; stroke: #ffffff; stroke-width: 0.75"/>
     </g>
    </g>
    <g id="text_15">
     <!-- LSTM -->
     <g transform="translate(163 91.756563) scale(0.1 -0.1)">
      <defs>
       <path id="DejaVuSans-4c" d="M 628 4666 
L 1259 4666 
L 1259 531 
L 3531 531 
L 3531 0 
L 628 0 
L 628 4666 
z
" transform="scale(0.015625)"/>
       <path id="DejaVuSans-54" d="M -19 4666 
L 3928 4666 
L 3928 4134 
L 2272 4134 
L 2272 0 
L 1638 0 
L 1638 4134 
L -19 4134 
L -19 4666 
z
" transform="scale(0.015625)"/>
      </defs>
      <use xlink:href="#DejaVuSans-4c"/>
      <use xlink:href="#DejaVuSans-53" x="55.712891"/>
      <use xlink:href="#DejaVuSans-54" x="119.189453"/>
      <use xlink:href="#DejaVuSans-4d" x="180.273438"/>
     </g>
    </g>
    <g id="line2d_28">
     <path d="M 135 102.934688 
L 145 102.934688 
L 155 102.934688 
" style="fill: none; stroke: #008000; stroke-width: 1.5; stroke-linecap: square"/>
     <g>
      <use xlink:href="#m2594519286" x="145" y="102.934688" style="fill: #008000; stroke: #ffffff; stroke-width: 0.75"/>
     </g>
    </g>
    <g id="text_16">
     <!-- GRU -->
     <g transform="translate(163 106.434688) scale(0.1 -0.1)">
      <defs>
       <path id="DejaVuSans-47" d="M 3809 666 
L 3809 1919 
L 2778 1919 
L 2778 2438 
L 4434 2438 
L 4434 434 
Q 4069 175 3628 42 
Q 3188 -91 2688 -91 
Q 1594 -91 976 548 
Q 359 1188 359 2328 
Q 359 3472 976 4111 
Q 1594 4750 2688 4750 
Q 3144 4750 3555 4637 
Q 3966 4525 4313 4306 
L 4313 3634 
Q 3963 3931 3569 4081 
Q 3175 4231 2741 4231 
Q 1884 4231 1454 3753 
Q 1025 3275 1025 2328 
Q 1025 1384 1454 906 
Q 1884 428 2741 428 
Q 3075 428 3337 486 
Q 3600 544 3809 666 
z
" transform="scale(0.015625)"/>
       <path id="DejaVuSans-52" d="M 2841 2188 
Q 3044 2119 3236 1894 
Q 3428 1669 3622 1275 
L 4263 0 
L 3584 0 
L 2988 1197 
Q 2756 1666 2539 1819 
Q 2322 1972 1947 1972 
L 1259 1972 
L 1259 0 
L 628 0 
L 628 4666 
L 2053 4666 
Q 2853 4666 3247 4331 
Q 3641 3997 3641 3322 
Q 3641 2881 3436 2590 
Q 3231 2300 2841 2188 
z
M 1259 4147 
L 1259 2491 
L 2053 2491 
Q 2509 2491 2742 2702 
Q 2975 2913 2975 3322 
Q 2975 3731 2742 3939 
Q 2509 4147 2053 4147 
L 1259 4147 
z
" transform="scale(0.015625)"/>
       <path id="DejaVuSans-55" d="M 556 4666 
L 1191 4666 
L 1191 1831 
Q 1191 1081 1462 751 
Q 1734 422 2344 422 
Q 2950 422 3222 751 
Q 3494 1081 3494 1831 
L 3494 4666 
L 4128 4666 
L 4128 1753 
Q 4128 841 3676 375 
Q 3225 -91 2344 -91 
Q 1459 -91 1007 375 
Q 556 841 556 1753 
L 556 4666 
z
" transform="scale(0.015625)"/>
      </defs>
      <use xlink:href="#DejaVuSans-47"/>
      <use xlink:href="#DejaVuSans-52" x="77.490234"/>
      <use xlink:href="#DejaVuSans-55" x="146.972656"/>
     </g>
    </g>
    <g id="line2d_29">
     <path d="M 135 117.612813 
L 145 117.612813 
L 155 117.612813 
" style="fill: none; stroke: #ffa500; stroke-width: 1.5; stroke-linecap: square"/>
     <g>
      <use xlink:href="#m6abca4bdb8" x="145" y="117.612813" style="fill: #ffa500; stroke: #ffffff; stroke-width: 0.75"/>
     </g>
    </g>
    <g id="text_17">
     <!-- BiLSTM -->
     <g transform="translate(163 121.112813) scale(0.1 -0.1)">
      <defs>
       <path id="DejaVuSans-42" d="M 1259 2228 
L 1259 519 
L 2272 519 
Q 2781 519 3026 730 
Q 3272 941 3272 1375 
Q 3272 1813 3026 2020 
Q 2781 2228 2272 2228 
L 1259 2228 
z
M 1259 4147 
L 1259 2741 
L 2194 2741 
Q 2656 2741 2882 2914 
Q 3109 3088 3109 3444 
Q 3109 3797 2882 3972 
Q 2656 4147 2194 4147 
L 1259 4147 
z
M 628 4666 
L 2241 4666 
Q 2963 4666 3353 4366 
Q 3744 4066 3744 3513 
Q 3744 3084 3544 2831 
Q 3344 2578 2956 2516 
Q 3422 2416 3680 2098 
Q 3938 1781 3938 1306 
Q 3938 681 3513 340 
Q 3088 0 2303 0 
L 628 0 
L 628 4666 
z
" transform="scale(0.015625)"/>
      </defs>
      <use xlink:href="#DejaVuSans-42"/>
      <use xlink:href="#DejaVuSans-69" x="68.603516"/>
      <use xlink:href="#DejaVuSans-4c" x="96.386719"/>
      <use xlink:href="#DejaVuSans-53" x="152.099609"/>
      <use xlink:href="#DejaVuSans-54" x="215.576172"/>
      <use xlink:href="#DejaVuSans-4d" x="276.660156"/>
     </g>
    </g>
    <g id="line2d_30">
     <path d="M 135 132.290938 
L 145 132.290938 
L 155 132.290938 
" style="fill: none; stroke: #800080; stroke-width: 1.5; stroke-linecap: square"/>
     <g>
      <use xlink:href="#m8e74ceda88" x="145" y="132.290938" style="fill: #800080; stroke: #ffffff; stroke-width: 0.75"/>
     </g>
    </g>
    <g id="text_18">
     <!-- CNN-Stacked-LSTM -->
     <g transform="translate(163 135.790938) scale(0.1 -0.1)">
      <defs>
       <path id="DejaVuSans-43" d="M 4122 4306 
L 4122 3641 
Q 3803 3938 3442 4084 
Q 3081 4231 2675 4231 
Q 1875 4231 1450 3742 
Q 1025 3253 1025 2328 
Q 1025 1406 1450 917 
Q 1875 428 2675 428 
Q 3081 428 3442 575 
Q 3803 722 4122 1019 
L 4122 359 
Q 3791 134 3420 21 
Q 3050 -91 2638 -91 
Q 1578 -91 968 557 
Q 359 1206 359 2328 
Q 359 3453 968 4101 
Q 1578 4750 2638 4750 
Q 3056 4750 3426 4639 
Q 3797 4528 4122 4306 
z
" transform="scale(0.015625)"/>
       <path id="DejaVuSans-2d" d="M 313 2009 
L 1997 2009 
L 1997 1497 
L 313 1497 
L 313 2009 
z
" transform="scale(0.015625)"/>
       <path id="DejaVuSans-63" d="M 3122 3366 
L 3122 2828 
Q 2878 2963 2633 3030 
Q 2388 3097 2138 3097 
Q 1578 3097 1268 2742 
Q 959 2388 959 1747 
Q 959 1106 1268 751 
Q 1578 397 2138 397 
Q 2388 397 2633 464 
Q 2878 531 3122 666 
L 3122 134 
Q 2881 22 2623 -34 
Q 2366 -91 2075 -91 
Q 1284 -91 818 406 
Q 353 903 353 1747 
Q 353 2603 823 3093 
Q 1294 3584 2113 3584 
Q 2378 3584 2631 3529 
Q 2884 3475 3122 3366 
z
" transform="scale(0.015625)"/>
      </defs>
      <use xlink:href="#DejaVuSans-43"/>
      <use xlink:href="#DejaVuSans-4e" x="69.824219"/>
      <use xlink:href="#DejaVuSans-4e" x="144.628906"/>
      <use xlink:href="#DejaVuSans-2d" x="219.433594"/>
      <use xlink:href="#DejaVuSans-53" x="255.517578"/>
      <use xlink:href="#DejaVuSans-74" x="318.994141"/>
      <use xlink:href="#DejaVuSans-61" x="358.203125"/>
      <use xlink:href="#DejaVuSans-63" x="419.482422"/>
      <use xlink:href="#DejaVuSans-6b" x="474.462891"/>
      <use xlink:href="#DejaVuSans-65" x="528.748047"/>
      <use xlink:href="#DejaVuSans-64" x="590.271484"/>
      <use xlink:href="#DejaVuSans-2d" x="653.748047"/>
      <use xlink:href="#DejaVuSans-4c" x="689.832031"/>
      <use xlink:href="#DejaVuSans-53" x="745.544922"/>
      <use xlink:href="#DejaVuSans-54" x="809.021484"/>
      <use xlink:href="#DejaVuSans-4d" x="870.105469"/>
     </g>
    </g>
    <g id="line2d_31">
     <path d="M 135 146.969063 
L 145 146.969063 
L 155 146.969063 
" style="fill: none; stroke: #ff0000; stroke-width: 1.5; stroke-linecap: square"/>
     <g>
      <use xlink:href="#mc332e1f793" x="145" y="146.969063" style="fill: #ff0000; stroke: #ffffff; stroke-width: 0.75"/>
     </g>
    </g>
    <g id="text_19">
     <!-- Ensemble (BiLSTM+GRU+XGBoost) -->
     <g transform="translate(163 150.469063) scale(0.1 -0.1)">
      <defs>
       <path id="DejaVuSans-45" d="M 628 4666 
L 3578 4666 
L 3578 4134 
L 1259 4134 
L 1259 2753 
L 3481 2753 
L 3481 2222 
L 1259 2222 
L 1259 531 
L 3634 531 
L 3634 0 
L 628 0 
L 628 4666 
z
" transform="scale(0.015625)"/>
       <path id="DejaVuSans-6d" d="M 3328 2828 
Q 3544 3216 3844 3400 
Q 4144 3584 4550 3584 
Q 5097 3584 5394 3201 
Q 5691 2819 5691 2113 
L 5691 0 
L 5113 0 
L 5113 2094 
Q 5113 2597 4934 2840 
Q 4756 3084 4391 3084 
Q 3944 3084 3684 2787 
Q 3425 2491 3425 1978 
L 3425 0 
L 2847 0 
L 2847 2094 
Q 2847 2600 2669 2842 
Q 2491 3084 2119 3084 
Q 1678 3084 1418 2786 
Q 1159 2488 1159 1978 
L 1159 0 
L 581 0 
L 581 3500 
L 1159 3500 
L 1159 2956 
Q 1356 3278 1631 3431 
Q 1906 3584 2284 3584 
Q 2666 3584 2933 3390 
Q 3200 3197 3328 2828 
z
" transform="scale(0.015625)"/>
       <path id="DejaVuSans-62" d="M 3116 1747 
Q 3116 2381 2855 2742 
Q 2594 3103 2138 3103 
Q 1681 3103 1420 2742 
Q 1159 2381 1159 1747 
Q 1159 1113 1420 752 
Q 1681 391 2138 391 
Q 2594 391 2855 752 
Q 3116 1113 3116 1747 
z
M 1159 2969 
Q 1341 3281 1617 3432 
Q 1894 3584 2278 3584 
Q 2916 3584 3314 3078 
Q 3713 2572 3713 1747 
Q 3713 922 3314 415 
Q 2916 -91 2278 -91 
Q 1894 -91 1617 61 
Q 1341 213 1159 525 
L 1159 0 
L 581 0 
L 581 4863 
L 1159 4863 
L 1159 2969 
z
" transform="scale(0.015625)"/>
       <path id="DejaVuSans-2b" d="M 2944 4013 
L 2944 2272 
L 4684 2272 
L 4684 1741 
L 2944 1741 
L 2944 0 
L 2419 0 
L 2419 1741 
L 678 1741 
L 678 2272 
L 2419 2272 
L 2419 4013 
L 2944 4013 
z
" transform="scale(0.015625)"/>
       <path id="DejaVuSans-58" d="M 403 4666 
L 1081 4666 
L 2241 2931 
L 3406 4666 
L 4084 4666 
L 2584 2425 
L 4184 0 
L 3506 0 
L 2194 1984 
L 872 0 
L 191 0 
L 1856 2491 
L 403 4666 
z
" transform="scale(0.015625)"/>
      </defs>
      <use xlink:href="#DejaVuSans-45"/>
      <use xlink:href="#DejaVuSans-6e" x="63.183594"/>
      <use xlink:href="#DejaVuSans-73" x="126.5625"/>
      <use xlink:href="#DejaVuSans-65" x="178.662109"/>
      <use xlink:href="#DejaVuSans-6d" x="240.185547"/>
      <use xlink:href="#DejaVuSans-62" x="337.597656"/>
      <use xlink:href="#DejaVuSans-6c" x="401.074219"/>
      <use xlink:href="#DejaVuSans-65" x="428.857422"/>
      <use xlink:href="#DejaVuSans-20" x="490.380859"/>
      <use xlink:href="#DejaVuSans-28" x="522.167969"/>
      <use xlink:href="#DejaVuSans-42" x="561.181641"/>
      <use xlink:href="#DejaVuSans-69" x="629.785156"/>
      <use xlink:href="#DejaVuSans-4c" x="657.568359"/>
      <use xlink:href="#DejaVuSans-53" x="713.28125"/>
      <use xlink:href="#DejaVuSans-54" x="776.757812"/>
      <use xlink:href="#DejaVuSans-4d" x="837.841797"/>
      <use xlink:href="#DejaVuSans-2b" x="924.121094"/>
      <use xlink:href="#DejaVuSans-47" x="1007.910156"/>
      <use xlink:href="#DejaVuSans-52" x="1085.400391"/>
      <use xlink:href="#DejaVuSans-55" x="1154.882812"/>
      <use xlink:href="#DejaVuSans-2b" x="1228.076172"/>
      <use xlink:href="#DejaVuSans-58" x="1311.865234"/>
      <use xlink:href="#DejaVuSans-47" x="1380.371094"/>
      <use xlink:href="#DejaVuSans-42" x="1457.861328"/>
      <use xlink:href="#DejaVuSans-6f" x="1526.464844"/>
      <use xlink:href="#DejaVuSans-6f" x="1587.646484"/>
      <use xlink:href="#DejaVuSans-73" x="1648.828125"/>
      <use xlink:href="#DejaVuSans-74" x="1700.927734"/>
      <use xlink:href="#DejaVuSans-29" x="1740.136719"/>
     </g>
    </g>
   </g>
  </g>
 </g>
 <defs>
  <clipPath id="p6e35765037">
   <rect x="126" y="60.48" width="781.2" height="388.08"/>
  </clipPath>
 </defs>
</svg>
